<svg
                      width="42"
                      height="43"
                      viewBox="0 0 42 43"
                      fill="none"
                      xmlns="http://www.w3.org/2000/svg"
                    >
                      <path
                        d="M6.72 21.5C6.72 13.604 13.104 7.22 21 7.22C28.896 7.22 35.28 13.604 35.28 21.5C35.28 29.396 28.896 35.78 21 35.78C13.104 35.78 6.72 29.396 6.72 21.5ZM33.6 21.5C33.6 14.528 27.972 8.9 21 8.9C14.028 8.9 8.4 14.528 8.4 21.5C8.4 28.472 14.028 34.1 21 34.1C27.972 34.1 33.6 28.472 33.6 21.5Z"
                        fill="white"
                        fill-opacity="0.5"
                      />
                      <path
                        d="M19.572 28.472L26.544 21.5L19.572 14.528L20.748 13.352L28.896 21.5L20.748 29.648L19.572 28.472Z"
                        fill="white"
                        fill-opacity="0.5"
                      />
                      <path
                        d="M27.72 20.66V22.34H13.44V20.66H27.72Z"
                        fill="white"
                        fill-opacity="0.5"
                      />
                    </svg>